<svg xmlns="http://www.w3.org/2000/svg" xmlns:xlink="http://www.w3.org/1999/xlink" width="75.313" height="41.711" viewBox="0 0 75.313 41.711">
  <defs>
    <linearGradient id="linear-gradient" x1="0.24" y1="-0.317" x2="0.912" y2="1" gradientUnits="objectBoundingBox">
      <stop offset="0" stop-color="#fff"/>
      <stop offset="1" stop-color="#fff" stop-opacity="0.49"/>
    </linearGradient>
  </defs>
  <g id="Group_9464" data-name="Group 9464" transform="translate(-13218.905 -5439.189)">
    <path id="Path_22541" data-name="Path 22541" d="M30.6,85.966a2.441,2.441,0,0,0,2.441,2.441H83.945a2.441,2.441,0,0,0,0-4.881H81.853a2.441,2.441,0,0,1,0-4.881h6.625a2.441,2.441,0,1,0,0-4.881H80.806a2.441,2.441,0,1,0,0-4.881H58.492a2.441,2.441,0,1,0,0-4.881H38.618a2.441,2.441,0,1,0,0,4.881H24.671a2.441,2.441,0,1,0,0,4.881h8.717a2.441,2.441,0,1,1,0,4.881H19.441a2.441,2.441,0,1,0,0,4.881h13.6A2.441,2.441,0,0,0,30.6,85.966Zm59.274,2.441a2.441,2.441,0,1,0-2.441-2.441A2.441,2.441,0,0,0,89.872,88.407Z" transform="translate(13201.904 5383.448)" fill-rule="evenodd" opacity="0.48" fill="url(#linear-gradient)"/>
    <g id="Group_9463" data-name="Group 9463" transform="translate(13237.384 5445.007)">
      <path id="Path_22542" data-name="Path 22542" d="M77.671,85.94a7.5,7.5,0,1,1,0-14.993q.27,0,.536.018a11.858,11.858,0,0,1,22.908-5.886,10.929,10.929,0,0,1,1.137-.059,10.469,10.469,0,0,1,.872,20.912v.008h-19.7m-1.573,0h0Z" transform="translate(-70 -57)" fill="#fff" fill-rule="evenodd"/>
      <circle id="Ellipse_101" data-name="Ellipse 101" cx="1.918" cy="1.918" r="1.918" transform="translate(18.131 20.223)" fill="none" stroke="#62b2c2" stroke-width="1.5"/>
      <path id="Path_22544" data-name="Path 22544" d="M112,102.016l2.441-1.915L112,98.278" transform="translate(-97.356 -83.885)" fill="none" stroke="#62b2c2" stroke-linecap="round" stroke-linejoin="round" stroke-width="1.5"/>
      <path id="Path_22545" data-name="Path 22545" d="M138.441,102.016,136,100.1l2.441-1.823" transform="translate(-112.988 -83.885)" fill="none" stroke="#62b2c2" stroke-linecap="round" stroke-linejoin="round" stroke-width="1.5"/>
    </g>
    <circle id="Ellipse_103" data-name="Ellipse 103" cx="1.046" cy="1.046" r="1.046" transform="translate(13290.009 5454.138)" fill="#62b2c2"/>
    <circle id="Ellipse_104" data-name="Ellipse 104" cx="1.046" cy="1.046" r="1.046" transform="translate(13265.436 5478.809)" fill="#62b2c2"/>
    <path id="Path_22547" data-name="Path 22547" d="M163.821,55.821l.308.308h0Zm.616,0,.308-.308h0Zm-.616.616-.308.308h0Zm1.171,1.171.308.308a.436.436,0,0,0,0-.616Zm-1.127,1.127-.308-.308h0Zm0,.616.308-.308h0Zm.616,0,.308.308h0Zm1.127-1.127.308-.308a.436.436,0,0,0-.616,0Zm1.127,1.127-.308.308h0Zm.616-.616.308-.308h0Zm-1.127-1.127-.308-.308a.436.436,0,0,0,0,.616Zm1.171-1.171.308.308h0Zm0-.616-.308.308h0Zm-.616,0-.308-.308h0Zm-1.171,1.171-.308.308a.436.436,0,0,0,.616,0Zm-1.479-.863h0l.616-.616a.871.871,0,0,0-1.233,0Zm0,0h0l-.616-.616a.871.871,0,0,0,0,1.233ZM165.3,57.3l-1.171-1.171-.616.616,1.171,1.171Zm-1.127,1.743,1.127-1.127-.616-.616-1.127,1.127Zm0,0h0l-.616-.616a.871.871,0,0,0,0,1.233Zm0,0h0l-.616.616a.871.871,0,0,0,1.233,0Zm1.127-1.127-1.127,1.127.616.616,1.127-1.127Zm1.743,1.127-1.127-1.127-.616.616,1.127,1.127Zm0,0h0l-.616.616a.871.871,0,0,0,1.233,0Zm0,0h0l.616.616a.871.871,0,0,0,0-1.233Zm-1.127-1.127,1.127,1.127.616-.616L166.533,57.3Zm1.171-1.787L165.916,57.3l.616.616,1.171-1.171Zm0,0h0l.616.616a.871.871,0,0,0,0-1.233Zm0,0h0l.616-.616a.871.871,0,0,0-1.233,0ZM165.916,57.3l1.171-1.171-.616-.616L165.3,56.684Zm-1.788-1.171L165.3,57.3l.616-.616-1.171-1.171Z" transform="translate(13081.326 5383.932)" fill="#62b2c2"/>
    <circle id="Ellipse_105" data-name="Ellipse 105" cx="1.046" cy="1.046" r="1.046" transform="translate(13229.256 5458.056)" fill="#62b2c2"/>
  </g>
</svg>
