<?xml version="1.0" standalone="no"?><!-- Generator: Adobe Fireworks CS6, Export SVG Extension by Aaron Beall (http://fireworks.abeall.com) . Version: 0.6.1  --><!DOCTYPE svg PUBLIC "-//W3C//DTD SVG 1.1//EN" "http://www.w3.org/Graphics/SVG/1.1/DTD/svg11.dtd"><svg id="Untitled-Page%201" viewBox="0 0 96 60" style="background-color:#ffffff00" version="1.1"	xmlns="http://www.w3.org/2000/svg" xmlns:xlink="http://www.w3.org/1999/xlink" xml:space="preserve"	x="0px" y="0px" width="96px" height="60px">	<g id="Layer%201">		<path d="M 57.5878 19.6806 L 57.5878 52.6889 C 57.5878 56.2578 56.3878 57.453 52.8046 57.453 L 7.0807 57.453 C 3.4975 57.453 2.2976 56.2578 2.2976 52.6889 L 2.2976 19.6806 L 57.5878 19.6806 ZM 2.2976 11.6295 C 2.2976 8.0605 3.4975 6.8653 7.0807 6.8653 L 16.5425 6.8653 L 16.5425 10.3743 C 16.5425 11.0483 17.0911 11.5948 17.7679 11.5948 C 18.4446 11.5948 18.9932 11.0483 18.9932 10.3743 L 18.9932 6.8653 L 41.0499 6.8653 L 41.0499 10.3743 C 41.0499 11.0483 41.5985 11.5948 42.2752 11.5948 C 42.952 11.5948 43.5006 11.0483 43.5006 10.3743 L 43.5006 6.8653 L 52.8046 6.8653 C 56.3878 6.8653 57.5878 8.0605 57.5878 11.6295 L 57.5878 17.2396 L 2.2976 17.2396 L 2.2976 11.6295 ZM 0 11.3855 L 0 53.0388 C 0 57.5914 2.4182 60 6.989 60 L 53.011 60 C 57.5818 60 60 57.5914 60 53.0388 L 60 11.3855 C 60 6.8329 57.5818 4.4243 53.011 4.4243 L 43.5006 4.4243 L 43.5006 1.2205 C 43.5006 0.5464 42.952 0 42.2752 0 C 41.5985 0 41.0499 0.5464 41.0499 1.2205 L 41.0499 4.4243 L 18.9932 4.4243 L 18.9932 1.2205 C 18.9932 0.5464 18.4446 0 17.7679 0 C 17.0911 0 16.5425 0.5464 16.5425 1.2205 L 16.5425 4.4243 L 6.989 4.4243 C 2.4182 4.4243 0 6.8329 0 11.3855 Z" fill="#666666"/>	</g></svg>