<svg xmlns="http://www.w3.org/2000/svg" width="22.48" height="13.4" viewBox="0 0 22.48 13.4">
  <g id="eye" transform="translate(0 -98.725)">
    <path id="Path_37" data-name="Path 37" d="M11.24,98.725c-4.295,0-8.19,2.35-11.064,6.167a.89.89,0,0,0,0,1.062c2.874,3.821,6.769,6.171,11.064,6.171s8.19-2.35,11.064-6.167a.89.89,0,0,0,0-1.062C19.43,101.075,15.535,98.725,11.24,98.725Zm.308,11.418a4.728,4.728,0,1,1,4.41-4.41A4.731,4.731,0,0,1,11.548,110.143Zm-.143-2.18a2.546,2.546,0,1,1,2.377-2.377A2.542,2.542,0,0,1,11.405,107.963Z" fill="#575757"/>
  </g>
</svg>
