<?xml version="1.0" standalone="no"?><!-- Generator: Adobe Fireworks CS6, Export SVG Extension by Aaron Beall (http://fireworks.abeall.com) . Version: 0.6.1  --><!DOCTYPE svg PUBLIC "-//W3C//DTD SVG 1.1//EN" "http://www.w3.org/Graphics/SVG/1.1/DTD/svg11.dtd"><svg id="Screenshot%202019-10-28%20at%2012.17.04%20AM-Page%201" viewBox="0 0 200 133" style="background-color:#ffffff00" version="1.1"	xmlns="http://www.w3.org/2000/svg" xmlns:xlink="http://www.w3.org/1999/xlink" xml:space="preserve"	x="0px" y="0px" width="200px" height="133px">	<g id="Background">		<path d="M 100 0.5 C 45.047 0.5 0.5 45.0044 0.5 99.905 C 0.5 100.2406 0.5017 150.1652 0.5051 150.5 L 15.1719 150.5 C 15.168 150.1653 15.1662 100.2406 15.1662 99.905 C 15.1662 53.0967 53.147 15.1522 100 15.1522 C 146.853 15.1522 184.8338 53.0967 184.8338 99.905 C 184.8338 100.2406 184.832 150.1653 184.8281 150.5 L 199.495 150.5 C 199.4983 150.1652 199.5 100.2406 199.5 99.905 C 199.5 45.0044 154.953 0.5 100 0.5 ZM 100.2157 28.7988 C 60.9465 28.7988 29.1134 60.6337 29.1134 99.905 C 29.1134 100.2407 29.116 150.1653 29.1207 150.5 L 43.794 150.5 C 43.7843 150.0702 43.7796 100.0498 43.7796 99.6177 C 43.7796 68.5973 68.95 43.451 100 43.451 C 131.05 43.451 156.2204 68.5973 156.2204 99.6177 C 156.2204 100.0498 156.2157 150.0702 156.206 150.5 L 171.3107 150.5 C 171.3154 150.1653 171.3179 100.2407 171.3179 99.905 C 171.3179 60.6337 139.4849 28.7988 100.2157 28.7988 ZM 99.8562 57.0976 C 76.4297 57.0976 57.4393 76.0699 57.4393 99.4741 C 57.4393 99.9548 57.4471 150.0231 57.463 150.5 L 71.8539 150.5 C 71.8298 150.0242 71.8179 99.9558 71.8179 99.4741 C 71.8179 84.0035 84.3709 71.4625 99.8562 71.4625 C 115.3415 71.4625 127.8945 84.0035 127.8945 99.4741 C 127.8945 99.9558 127.8826 150.0242 127.8586 150.5 L 142.2494 150.5 C 142.2653 150.0231 142.2731 99.9548 142.2731 99.4741 C 142.2731 76.0699 123.2827 57.0976 99.8562 57.0976 Z" fill="#ffffff"/>	</g>	<g id="Layer%201">	</g></svg>