<?xml version="1.0" standalone="no"?><!-- Generator: Adobe Fireworks CS6, Export SVG Extension by Aaron Beall (http://fireworks.abeall.com) . Version: 0.6.1  --><!DOCTYPE svg PUBLIC "-//W3C//DTD SVG 1.1//EN" "http://www.w3.org/Graphics/SVG/1.1/DTD/svg11.dtd"><svg id="Screenshot%202019-10-27%20at%202.06.11%20PM-Page%201" viewBox="0 0 445 287" style="background-color:#ffffff00" version="1.1"	xmlns="http://www.w3.org/2000/svg" xmlns:xlink="http://www.w3.org/1999/xlink" xml:space="preserve"	x="0px" y="0px" width="445px" height="287px">	<g id="Background">		<path d="M 19 34 L 19 72 L 48 53 L 19 34 Z" fill="#ffffff"/>		<path d="M 166.3198 56.835 L 153.365 44.225 L 138.7849 58.4199 L 130.365 50.225 L 122.24 58.14 C 120.802 55.0603 120 51.6234 120 48 C 120 34.745 130.7449 24 144 24 C 157.2551 24 168 34.745 168 48 C 168 51.1206 167.4036 54.1001 166.3198 56.835 ZM 131.9849 68.775 L 153.3599 47.1899 L 165.3899 58.895 C 162.5342 64.4902 157.5474 68.817 151.5 70.8049 L 149.1299 71.45 C 147.4773 71.8097 145.7605 72 144 72 C 139.6213 72 135.5183 70.8242 131.9849 68.775 ZM 123.2649 60.09 L 130.3599 53.1899 L 137.26 59.905 L 130.1599 67.605 C 127.3604 65.6245 125.0012 63.0615 123.2649 60.09 ZM 121.79 61.525 C 123.5984 64.4877 125.9849 67.063 128.79 69.09 L 130.5999 70.285 C 134.5137 72.644 139.0972 74 144 74 C 146.3599 74 148.6465 73.6841 150.8198 73.095 L 153.0999 72.36 C 159.0164 70.1489 163.9119 65.8463 166.885 60.35 L 167.865 58.34 C 169.2402 55.1711 170 51.6746 170 48 C 170 33.6404 158.3596 22 144 22 C 129.6404 22 118 33.6404 118 48 C 118 52.1724 118.9836 56.1161 120.73 59.61 L 121.79 61.525 ZM 136.4285 42 C 136.4285 40.0275 138.0276 38.4286 140 38.4286 C 141.9724 38.4286 143.5715 40.0275 143.5715 42 C 143.5715 43.9725 141.9724 45.5714 140 45.5714 C 138.0276 45.5714 136.4285 43.9725 136.4285 42 ZM 135 42 C 135 44.7615 137.2385 47 140 47 C 142.7615 47 145 44.7615 145 42 C 145 39.2385 142.7615 37 140 37 C 137.2385 37 135 39.2385 135 42 Z" fill="#ffffff"/>	</g>	<g id="Layer%201">	</g></svg>