<svg xmlns="http://www.w3.org/2000/svg" width="159.891" height="64.822" viewBox="0 0 159.891 64.822"><defs><style>.a{fill:#231f20;}.b{fill:#f4364c;}.c{fill:#ffb81c;}.d{fill:#485cc7;}</style></defs><g transform="translate(-70.06 -117.598)"><path class="a" d="M160.25,142.7H142.59c-.7,0-.7,0-.69.7v3.41a2,2,0,0,1-2.07,2.15c-2.74.02-5.49,0-8.23.02-.32,0-.38-.1-.37-.4a14.592,14.592,0,0,0,0-1.62c-.03-.42.09-.56.53-.55,1.55.03,3.1.02,4.66.01a3.221,3.221,0,0,0,1.44-.18,1.93,1.93,0,0,0,1.19-1.72c.02-.45-.02-.9,0-1.35.02-.39-.14-.47-.5-.47-2.27.02-4.55,0-6.82.02-.42,0-.49-.11-.49-.51.02-4.82,0-9.63.01-14.45a5.355,5.355,0,0,1,.29-2.02,3.061,3.061,0,0,1,3.18-1.86c2.24-.04,4.48,0,6.72-.02.39,0,.5.09.5.51-.02,5.1,0,10.21-.02,15.31,0,.49.14.58.6.58q4.335-.03,8.67,0c.4,0,.51-.09.51-.5-.01-5.12,0-10.25-.02-15.37,0-.45.14-.54.54-.53.63.02,1.26.02,1.9,0,.32-.01.44.07.42.41-.03.79,0,1.59,0,2.38q0,6.525-.01,13.04c0,.47.15.57.58.56,1.88-.02,3.76-.02,5.63,0,.47,0,.6-.11.6-.59-.02-5.09,0-10.17-.02-15.26,0-.47.14-.58.57-.55a16.135,16.135,0,0,0,1.84,0c.37-.02.44.12.44.46-.01,3.32,0,6.64,0,9.96,0,1.84.01,3.68,0,5.52,0,.38.11.48.48.47,1.15-.03,2.31-.03,3.47,0,.47.01.61-.1.61-.59-.02-5.03-.01-10.07-.01-15.1q0-.7.73-.7c.54,0,1.08.03,1.62,0,.42-.03.49.12.49.52-.02,3.86,0,7.72,0,11.58,0,1.28.01,2.56,0,3.84,0,.35.08.46.44.46,1.08-.02,2.17-.03,3.25,0,.4.01.53-.1.53-.5-.02-1.82,0-3.64,0-5.47q0-4.98-.01-9.96c0-.41.13-.48.49-.47.63.02,1.26.03,1.89,0,.38-.02.48.11.48.48-.02,2.65,0,5.3,0,7.95v9.9c0,.35-.02.52-.47.52-5.94-.02-11.88-.01-17.82-.01h0Zm-21.24-9.4v-6.49c0-.32-.04-.49-.43-.47-.65.04-1.3,0-1.95.01a2.311,2.311,0,0,0-2.49,2.18,5.465,5.465,0,0,0-.03.7v10.54c0,.36.08.49.47.49,1.3-.03,2.6-.03,3.89,0,.41,0,.55-.09.54-.53-.02-2.14-.01-4.29-.01-6.43Z"/><path class="a" d="M113.74,133.29c0,2.98,0,5.95.01,8.93,0,.41-.11.5-.51.5-3.88-.02-10.27,0-14.15-.03-.41,0-.55.09-.54.53.03,1.17.02,2.34.01,3.52a2.031,2.031,0,0,1-2.21,2.23c-2.65,0-5.31,0-7.96.01-.37,0-.52-.08-.5-.47a15.692,15.692,0,0,0,0-1.68c-.01-.33.11-.43.44-.42,1.61.02,3.21.01,4.82.01a2.767,2.767,0,0,0,1.62-.31,1.963,1.963,0,0,0,.93-1.73,11.808,11.808,0,0,1,0-1.19c.05-.44-.14-.5-.51-.49-2.27.01-4.55,0-6.82.01-.3,0-.45-.02-.44-.39.02-5.01,0-10.03.03-15.04q.015-3.3,3.34-3.39c2.31-.06,4.62,0,6.93-.02.41,0,.36.22.36.48v14.99c0,.18.01.36,0,.54-.02.27.07.38.36.38,3.01-.01,8.54-.02,11.55,0,.42,0,.35-.24.35-.49q0-7.635-.02-15.26c0-.54.16-.68.66-.64a10.95,10.95,0,0,0,1.62,0c.48-.04.64.1.63.61-.03,2.94-.01,5.88-.01,8.82Zm-18.03-.02c0-2.15-.01-4.29,0-6.44,0-.38-.1-.5-.48-.48-.58.03-1.15,0-1.73,0a2.369,2.369,0,0,0-2.67,2.66c0,3.61,0,7.21-.02,10.82,0,.34.11.43.43.43,1.34-.01,2.67-.02,4.01,0,.41,0,.46-.15.46-.5-.02-2.16,0-4.33,0-6.49Z"/><path class="a" d="M120.03,168.77q0-6.2-.01-12.39c0-.43.12-.52.53-.52,2.74.02,5.49,0,8.23.01a4.336,4.336,0,0,1,4.32,4.3q.015,8.46,0,16.93a4.5,4.5,0,0,1-4.62,4.55c-2.65,0-5.31,0-7.96.01-.4,0-.5-.09-.5-.5.02-4.13.01-8.26.01-12.39Zm2.86-.06v9.52c0,.37.04.53.48.52,1.71-.03,3.43,0,5.14-.01a1.618,1.618,0,0,0,1.75-1.75V160.55c0-1.22-.51-1.74-1.73-1.74-1.71,0-3.43.02-5.14-.01-.43,0-.49.13-.49.51.02,3.14,0,6.27,0,9.41Z"/><path class="a" d="M145.01,168.82c0-2.96-.07-5.91.02-8.87a4.387,4.387,0,0,1,4.42-4.28c1.42-.04,2.85-.04,4.28,0a4.465,4.465,0,0,1,4.3,4.31c.06,2.7.03,5.41.03,8.11v9.03a4.565,4.565,0,0,1-3.16,4.65,3.6,3.6,0,0,1-1.22.21h-4.17a4.438,4.438,0,0,1-4.47-4.12c-.1-1.67-.05-3.35-.06-5.03v-4h.03Zm10.21.05v-8.39a1.655,1.655,0,0,0-1.89-1.89h-3.68a1.6,1.6,0,0,0-1.8,1.74v16.99a1.609,1.609,0,0,0,1.77,1.73c1.17,0,2.35-.05,3.52.01,1.52.08,2.13-.82,2.11-2.13-.05-2.69-.01-5.37-.01-8.06Z"/><path class="a" d="M102.45,167V156.34c0-.37.08-.5.46-.48a18.122,18.122,0,0,0,1.95,0c.37-.02.44.11.44.45-.02,2,0,4,0,6.01v14.77c0,1.39.58,1.96,1.97,1.96h3.68a1.574,1.574,0,0,0,1.73-1.53,8.335,8.335,0,0,0,.03-.86V156.59c0-.71,0-.71.72-.71.6,0,1.19,0,1.79-.01.25,0,.38.06.34.33a2.431,2.431,0,0,0,0,.27v20.4a4.922,4.922,0,0,1-1.95,4.29,4.029,4.029,0,0,1-2.41.82c-1.44.01-2.89,0-4.33,0a4.489,4.489,0,0,1-4.41-4.37c-.02-3.53,0-7.07,0-10.6h0Z"/><path class="a" d="M70.06,175.33v-2.44c0-.25.06-.35.33-.34.72.02,1.44.02,2.17,0,.31-.01.35.11.35.37-.01,1.37,0,2.74,0,4.11,0,1.44.58,2.02,2.04,2.02H78.2a1.6,1.6,0,0,0,1.77-1.77c0-.74-.03-1.48,0-2.22a5.664,5.664,0,0,0-2.58-5c-1.03-.77-2.18-1.34-3.25-2.03a7.417,7.417,0,0,1-3.54-4.06,8.141,8.141,0,0,1,.2-5.81,4.147,4.147,0,0,1,3.88-2.48c1.37-.03,2.74-.03,4.12,0a4.533,4.533,0,0,1,4.21,4.25c0,.28-.02.42-.36.41-.72-.02-1.44-.02-2.17,0-.22,0-.29-.05-.33-.28a1.573,1.573,0,0,0-1.76-1.45H74.87a1.613,1.613,0,0,0-1.76,1.74c0,.4.03.8,0,1.19a3.568,3.568,0,0,0,1.56,3.26,23.471,23.471,0,0,0,2.96,1.88,10.374,10.374,0,0,1,4.32,4.26,7.43,7.43,0,0,1,.83,3.05,18.465,18.465,0,0,1-.12,4.58,4.4,4.4,0,0,1-4.31,3.42H74.56a4.5,4.5,0,0,1-4.46-4.32c-.03-.77,0-1.55,0-2.33h-.01Z"/><path class="a" d="M94.12,170.18c0,3.64,0,7.29.01,10.93,0,.46-.12.58-.56.55-.65-.04-1.3-.02-1.95,0-.25,0-.36-.07-.34-.34.02-.38,0-.76,0-1.14q0-10.425.01-20.84c0-.45-.11-.57-.56-.56-1.46.03-2.92,0-4.39.02-.38,0-.55-.05-.52-.49a18.12,18.12,0,0,0,0-1.95c-.02-.4.1-.51.51-.51,3.76.02,7.51.01,11.27.01.52,0,1.05.03,1.57-.01.36-.02.43.12.42.43-.02.67-.03,1.34,0,2,.02.4-.08.52-.5.51-1.41-.03-2.82-.01-4.22-.01-.75,0-.75,0-.75.72v10.66Z"/><path class="a" d="M178.93,178.17v.33a3.961,3.961,0,0,1-3.44,3.79,10.407,10.407,0,0,1-1.66.13c-.27,0-.55,0-.82-.02-.36,0-.73-.02-1.11,0a7.11,7.11,0,0,1-2.42-.22,3.764,3.764,0,0,1-2.86-3.68c-.02-1-.02-1.98-.02-2.97.02-.86.02-1.71,0-2.57a.855.855,0,0,1,.2-.62.925.925,0,0,1,.69-.22c.66,0,1,0,1.27.27.25.25.25.64.25,1.31v4.21c0,1.35.47,1.89,1.71,1.98a21.775,21.775,0,0,0,4.19-.05,1.642,1.642,0,0,0,1.57-1.84v-6.32a2.212,2.212,0,0,0-2.48-2.44h-5.81a.945.945,0,0,1-.71-.22.891.891,0,0,1-.22-.71c.02-1.35,0-2.71,0-4.06V157.5a.98.98,0,0,1,.22-.73.839.839,0,0,1,.69-.22c3.3.02,6.61.02,9.9,0a.808.808,0,0,1,.66.22.914.914,0,0,1,.22.66c-.02,1.4-.2,1.6-1.58,1.6h-1.93c-1.89,0-3.77,0-5.66-.02h-.07v.09c.02,2.49.02,5.06,0,7.63v.05h2.06c.86,0,1.69.02,2.55-.02h.13c2.57,0,4.35,1.82,4.46,4.57.09,2.28.05,4.59.02,6.83Z"/><path class="a" d="M82.4,145.1v.33a3.961,3.961,0,0,1-3.44,3.79,10.407,10.407,0,0,1-1.66.13c-.27,0-.55,0-.82-.02-.36,0-.73-.02-1.11,0a7.11,7.11,0,0,1-2.42-.22,3.764,3.764,0,0,1-2.86-3.68c-.02-1-.02-1.98-.02-2.97.02-.86.02-1.71,0-2.57a.855.855,0,0,1,.2-.62.925.925,0,0,1,.69-.22c.66,0,1,0,1.27.27.25.25.25.64.25,1.31v4.21c0,1.35.47,1.89,1.71,1.98a21.775,21.775,0,0,0,4.19-.05,1.642,1.642,0,0,0,1.57-1.84v-6.32a2.212,2.212,0,0,0-2.48-2.44H71.66a.945.945,0,0,1-.71-.22.891.891,0,0,1-.22-.71c.02-1.35,0-2.71,0-4.06v-6.75a.98.98,0,0,1,.22-.73.839.839,0,0,1,.69-.22c3.3.02,6.61.02,9.9,0a.808.808,0,0,1,.66.22.914.914,0,0,1,.22.66c-.02,1.4-.2,1.6-1.58,1.6H78.91c-1.89,0-3.77,0-5.66-.02h-.07v.09c.02,2.49.02,5.06,0,7.63v.05h2.06c.86,0,1.69.02,2.55-.02h.13c2.57,0,4.35,1.82,4.46,4.57.09,2.28.05,4.59.02,6.83Z"/><path class="a" d="M126.41,134.08v8.11c0,.39-.08.52-.5.51-2.38-.02-4.76-.01-7.15,0-.35,0-.47-.08-.46-.44.03-.67.03-1.33,0-2-.02-.35.11-.41.43-.41,1.43.02,2.85,0,4.28.02.38,0,.52-.06.52-.49-.02-3.52,0-7.03-.01-10.55a1.943,1.943,0,0,0-2.11-2.12c-.49,0-.98-.02-1.46,0-.3.01-.42-.05-.41-.38q.03-1.08,0-2.16c0-.26.08-.34.34-.34,1.53,0,3.07-.02,4.6.01a1.978,1.978,0,0,1,1.92,2.12c.01,2.7,0,5.41,0,8.11Z"/><path class="a" d="M137.62,168.72V156.38c0-.39.06-.54.49-.52.67.04,1.34.02,2,0,.27,0,.41.07.38.36-.01.12,0,.25,0,.38v24.29a.681.681,0,0,1-.78.76c-.52,0-1.05-.03-1.57,0-.4.03-.52-.08-.51-.5.02-2.42.01-4.83.01-7.25v-5.19Z"/><path class="a" d="M106.36,148.96c-.37-.07-.98.22-1.25-.12-.22-.28-.07-.86-.08-1.31,0-1.13,0-1.13,1.12-1.13.45,0,.9.02,1.35,0,.32-.01.41.11.4.41-.02.59-.02,1.19,0,1.78,0,.28-.08.39-.37.37-.36-.02-.72,0-1.16,0Z"/><path class="a" d="M111.99,148.96c-.38-.06-.99.22-1.25-.11-.22-.28-.07-.86-.07-1.31a.99.99,0,0,1,1.11-1.13c.47,0,.94.02,1.41,0,.26,0,.35.09.34.35q-.015.945,0,1.89c0,.24-.09.32-.32.31-.38-.01-.76,0-1.21,0Z"/><path class="a" d="M147.37,120.19c-.39-.05-.99.21-1.24-.09-.23-.27-.08-.86-.08-1.3,0-1.14,0-1.14,1.15-1.14.47,0,.94,0,1.41-.01.22,0,.32.06.31.31-.02.63-.02,1.26-.01,1.89,0,.25-.07.36-.34.34-.38-.02-.76,0-1.19,0Z"/><path class="a" d="M152.95,120.19c-.36-.06-.95.21-1.2-.09-.22-.25-.08-.82-.08-1.25,0-1.18,0-1.19,1.15-1.17.55,0,1.29-.24,1.6.1.27.29.07,1.02.07,1.56a.755.755,0,0,1-.87.85h-.68Z"/><rect class="b" width="43.84" height="15.46" transform="translate(186.11 123.86)"/><path class="c" d="M194.56,174.65a7.76,7.76,0,1,1,7.76,7.76A7.761,7.761,0,0,1,194.56,174.65Z"/><path class="d" d="M201.79,142.59c2.79,0,5.57-.03,8.36,0a19.921,19.921,0,0,1,7.03,1.36,19.522,19.522,0,0,1,5.55,3.27,20.009,20.009,0,0,1,5.13,6.49,19.718,19.718,0,0,1,1.93,6.35,20.106,20.106,0,0,1-.92,9.07,19.971,19.971,0,0,1-7.96,10.24,19.923,19.923,0,0,1-5.8,2.6,16.107,16.107,0,0,1-1.95.42c-.27.03-.4-.02-.39-.33q.03-1.08,0-2.16c0-.27.09-.38.35-.43a16.311,16.311,0,0,0,6.35-2.6,16.976,16.976,0,0,0,6.64-8.56,16.464,16.464,0,0,0,.91-7.06,17.185,17.185,0,0,0-11.41-14.8,16.338,16.338,0,0,0-5.51-.96H186.52c-.33,0-.42-.09-.41-.41.02-.67.03-1.33,0-2-.02-.39.09-.51.49-.51,2.84.02,12.35,0,15.19,0Z"/><path class="d" d="M201.96,151.21c-2.91,0-12.48,0-15.39.01-.39,0-.47-.12-.46-.48.03-.65.03-1.31,0-1.96-.02-.38.09-.49.48-.49,2.31.02,11.29,0,13.6,0,3.34,0,6.69-.04,10.03.01a13.935,13.935,0,0,1,6.96,1.97,14.215,14.215,0,0,1,5.56,5.94,13.808,13.808,0,0,1,1.47,5.51,14.544,14.544,0,0,1-.44,4.6,14.389,14.389,0,0,1-8.16,9.47,17.7,17.7,0,0,1-2.46.81c-.26.07-.38.05-.37-.28.03-.75.01-1.5,0-2.24a.381.381,0,0,1,.31-.44,11.348,11.348,0,0,0,3.23-1.51,11.2,11.2,0,0,0,4.95-8.06,10.977,10.977,0,0,0-1.97-7.99,11.19,11.19,0,0,0-7.55-4.72,12.033,12.033,0,0,0-1.99-.14h-7.79Z"/><path class="d" d="M201.66,156.93H186.6c-.4,0-.5-.12-.48-.5.03-.68.02-1.36,0-2.04,0-.27.05-.38.35-.38,5.61,0,17.89-.02,23.51.01a8.383,8.383,0,0,1,6.45,2.95,8.281,8.281,0,0,1,2.06,4.77,8.4,8.4,0,0,1-1.37,5.62,8.488,8.488,0,0,1-4.04,3.27c-.22.09-.3.04-.3-.19v-2.69c0-.21.14-.28.27-.36a5.7,5.7,0,0,0-3.15-10.47h-8.24Z"/></g></svg>