<svg width="44" height="59" viewBox="0 0 44 59" fill="none" xmlns="http://www.w3.org/2000/svg">
<path d="M43.89 0.261963H0.0500488V15.722H43.89V0.261963Z" fill="#F4364C"/>
<path d="M8.5 51.052C8.5 49.5172 8.95512 48.0169 9.8078 46.7408C10.6605 45.4646 11.8724 44.47 13.2904 43.8827C14.7083 43.2954 16.2686 43.1417 17.7739 43.4411C19.2792 43.7405 20.6619 44.4796 21.7471 45.5649C22.8324 46.6501 23.5715 48.0328 23.8709 49.5381C24.1703 51.0434 24.0166 52.6037 23.4293 54.0216C22.842 55.4396 21.8474 56.6515 20.5712 57.5042C19.2951 58.3569 17.7948 58.812 16.26 58.812C14.202 58.8117 12.2284 57.9941 10.7731 56.5388C9.31792 55.0836 8.50027 53.11 8.5 51.052Z" fill="#FFB81C"/>
<path d="M15.73 18.992C18.52 18.992 21.3 18.962 24.09 18.992C26.4962 19.0171 28.878 19.4778 31.12 20.352C33.1383 21.1272 35.0138 22.2322 36.67 23.622C38.8134 25.4044 40.5607 27.615 41.8 30.112C42.7975 32.1045 43.45 34.2515 43.73 36.462C44.1218 39.5159 43.8071 42.619 42.81 45.532C41.3698 49.7359 38.5687 53.3393 34.85 55.772C33.0682 56.9435 31.11 57.8213 29.05 58.372C28.4093 58.5522 27.758 58.6925 27.1 58.792C26.83 58.822 26.7 58.772 26.71 58.462C26.73 57.742 26.73 57.022 26.71 56.302C26.71 56.032 26.8 55.922 27.06 55.872C29.337 55.4654 31.5016 54.5791 33.41 53.272C36.4988 51.2205 38.8309 48.214 40.05 44.712C40.8645 42.4532 41.1751 40.0436 40.96 37.652C40.6887 34.3473 39.4671 31.1916 37.4425 28.5655C35.418 25.9395 32.6769 23.9552 29.55 22.852C27.7821 22.2177 25.9182 21.893 24.04 21.892H0.459973C0.129973 21.892 0.039969 21.802 0.049969 21.482C0.069969 20.812 0.079969 20.152 0.049969 19.482C0.029969 19.092 0.139975 18.972 0.539975 18.972C3.37997 18.992 12.89 18.972 15.73 18.972V18.992Z" fill="#485CC7"/>
<path d="M15.9 27.612C12.99 27.612 3.41998 27.612 0.50998 27.622C0.11998 27.622 0.0399732 27.502 0.0499732 27.142C0.0799732 26.492 0.0799732 25.832 0.0499732 25.182C0.0299732 24.802 0.139969 24.692 0.529969 24.692C2.83997 24.712 11.82 24.692 14.13 24.692C17.47 24.692 20.82 24.652 24.16 24.702C26.6129 24.7346 29.0138 25.4142 31.12 26.672C33.5125 28.068 35.445 30.1326 36.68 32.612C37.548 34.3264 38.0487 36.2031 38.15 38.122C38.2494 39.669 38.1009 41.2219 37.71 42.722C37.1496 44.8126 36.1249 46.7498 34.7121 48.3895C33.2993 50.0291 31.5348 51.3289 29.55 52.192C28.7509 52.5217 27.9286 52.7925 27.09 53.002C26.83 53.072 26.71 53.052 26.72 52.722C26.75 51.972 26.73 51.222 26.72 50.482C26.7028 50.3826 26.7259 50.2804 26.784 50.1979C26.8421 50.1154 26.9306 50.0594 27.03 50.042C28.1795 49.712 29.2696 49.2024 30.26 48.532C31.6231 47.631 32.7725 46.4426 33.6276 45.0502C34.4827 43.6578 35.0228 42.0953 35.21 40.472C35.6143 37.654 34.9079 34.7891 33.24 32.482C32.3715 31.2205 31.2533 30.1506 29.9547 29.3387C28.656 28.5269 27.2045 27.9902 25.69 27.762C25.0317 27.6604 24.366 27.6135 23.7 27.622H15.91L15.9 27.612Z" fill="#485CC7"/>
<path d="M15.6 33.332H0.540033C0.140033 33.332 0.0400215 33.212 0.0600215 32.832C0.0900215 32.152 0.0800215 31.472 0.0600215 30.792C0.0600215 30.522 0.110028 30.412 0.410028 30.412C6.02003 30.412 18.3 30.3921 23.92 30.4221C25.1454 30.4125 26.358 30.6716 27.4724 31.1813C28.5868 31.691 29.5759 32.4388 30.37 33.372C31.5506 34.6999 32.2729 36.3722 32.43 38.1421C32.6531 40.1185 32.1677 42.11 31.06 43.762C30.0884 45.2477 28.6755 46.3913 27.02 47.0321C26.8 47.1221 26.72 47.0721 26.72 46.8421V44.152C26.72 43.942 26.86 43.872 26.99 43.792C28.0195 43.1186 28.8035 42.1302 29.2248 40.9745C29.6462 39.8188 29.6824 38.5578 29.328 37.3798C28.9736 36.2018 28.2476 35.1701 27.2585 34.4387C26.2694 33.7074 25.0702 33.3156 23.84 33.322H15.6V33.332Z" fill="#485CC7"/>
</svg>
