<svg xmlns="http://www.w3.org/2000/svg" width="22" height="22" viewBox="0 0 22 22">
  <g id="Group_615" data-name="Group 615" transform="translate(-1537 -432)">
    <g id="Path_35" data-name="Path 35" transform="translate(1537 432)" fill="#fff">
      <path d="M 11 21.5 C 5.210279941558838 21.5 0.5 16.78972053527832 0.5 11 C 0.5 5.210279941558838 5.210279941558838 0.5 11 0.5 C 16.78972053527832 0.5 21.5 5.210279941558838 21.5 11 C 21.5 16.78972053527832 16.78972053527832 21.5 11 21.5 Z" stroke="none"/>
      <path d="M 11 1 C 5.485979080200195 1 1 5.485979080200195 1 11 C 1 16.51401901245117 5.485979080200195 21 11 21 C 16.51401901245117 21 21 16.51401901245117 21 11 C 21 5.485979080200195 16.51401901245117 1 11 1 M 11 0 C 17.07513046264648 0 22 4.924869537353516 22 11 C 22 17.07513046264648 17.07513046264648 22 11 22 C 4.924869537353516 22 0 17.07513046264648 0 11 C 0 4.924869537353516 4.924869537353516 0 11 0 Z" stroke="none" fill="#7e7e7e"/>
    </g>
    <path id="Path_36" data-name="Path 36" d="M36.95,14.417a.252.252,0,0,0,.373,0,.3.3,0,0,0,0-.4L34.043,10.5l3.28-3.517a.3.3,0,0,0,0-.4.252.252,0,0,0-.373,0L33.477,10.3a.3.3,0,0,0,0,.4Z" transform="translate(1512.1 433)" stroke="#000" stroke-width="1" opacity="0.5"/>
  </g>
</svg>
