<svg xmlns="http://www.w3.org/2000/svg" xmlns:xlink="http://www.w3.org/1999/xlink" width="16" height="16" viewBox="0 0 16 16"><defs><clipPath id="a"><rect width="16" height="16" transform="translate(743 636)" fill="#fff" stroke="#707070" stroke-width="1"/></clipPath><filter id="b" x="-9" y="-6" width="34" height="34" filterUnits="userSpaceOnUse"><feOffset dy="3" input="SourceAlpha"/><feGaussianBlur stdDeviation="3" result="c"/><feFlood flood-color="#434f9f" flood-opacity="0.122"/><feComposite operator="in" in2="c"/><feComposite in="SourceGraphic"/></filter></defs><g transform="translate(-743 -636)" clip-path="url(#a)"><g transform="matrix(1, 0, 0, 1, 743, 636)" filter="url(#b)"><path d="M10,18a8,8,0,1,1,8-8A8,8,0,0,1,10,18Zm2.552-5.032a.612.612,0,0,0,.312.088.594.594,0,0,0,.512-.3.6.6,0,0,0-.208-.824l-2.848-1.7v-3.7a.6.6,0,0,0-1.2,0v4.04a.6.6,0,0,0,.3.512Z" transform="translate(-2 -2)" fill-rule="evenodd"/></g></g></svg>