<?xml version="1.0" standalone="no"?><!-- Generator: Adobe Fireworks CS6, Export SVG Extension by Aaron Beall (http://fireworks.abeall.com) . Version: 0.6.1  --><!DOCTYPE svg PUBLIC "-//W3C//DTD SVG 1.1//EN" "http://www.w3.org/Graphics/SVG/1.1/DTD/svg11.dtd"><svg id="Screenshot%202019-10-28%20at%2012.17.04%20AM-Page%201" viewBox="0 0 300 199" style="background-color:#ffffff00" version="1.1"	xmlns="http://www.w3.org/2000/svg" xmlns:xlink="http://www.w3.org/1999/xlink" xml:space="preserve"	x="0px" y="0px" width="300px" height="199px">	<g id="Background">		<path d="M 300 99.5 C 300 154.453 255.4956 199 200.595 199 C 200.2594 199 0.3348 198.9983 0 198.9949 L 0 184.3281 C 0.3347 184.332 200.2594 184.3338 200.595 184.3338 C 247.4033 184.3338 285.3478 146.353 285.3478 99.5 C 285.3478 52.647 247.4033 14.6662 200.595 14.6662 C 200.2594 14.6662 0.3347 14.668 0 14.6719 L 0 0.005 C 0.3348 0.0017 200.2594 0 200.595 0 C 255.4956 0 300 44.547 300 99.5 ZM 271.7012 99.2843 C 271.7012 138.5535 239.8663 170.3866 200.595 170.3866 C 200.2593 170.3866 0.3346 170.384 0 170.3793 L 0 155.706 C 0.4298 155.7157 200.4502 155.7204 200.8823 155.7204 C 231.9027 155.7204 257.049 130.55 257.049 99.5 C 257.049 68.45 231.9027 43.2796 200.8823 43.2796 C 200.4502 43.2796 0.4298 43.2843 0 43.294 L 0 28.1893 C 0.3346 28.1846 200.2593 28.1821 200.595 28.1821 C 239.8663 28.1821 271.7012 60.0151 271.7012 99.2843 ZM 243.4024 99.6438 C 243.4024 123.0703 224.4301 142.0607 201.0259 142.0607 C 200.5452 142.0607 0.4769 142.0529 0 142.037 L 0 127.6461 C 0.4758 127.6702 200.5442 127.6821 201.0259 127.6821 C 216.4965 127.6821 229.0375 115.1291 229.0375 99.6438 C 229.0375 84.1585 216.4965 71.6055 201.0259 71.6055 C 200.5442 71.6055 0.4758 71.6174 0 71.6414 L 0 57.2506 C 0.4769 57.2347 200.5452 57.2269 201.0259 57.2269 C 224.4301 57.2269 243.4024 76.2173 243.4024 99.6438 Z" fill="#ffffff"/>	</g>	<g id="Layer%201">	</g></svg>